<svg id="Layer_1" enable-background="new 0 0 91 91" height="512" viewBox="0 0 91 91" width="512" xmlns="http://www.w3.org/2000/svg"><g><path d="m59.6 19.7c-1.3 0-2.5.2-3.7.6-2.4-2.8-5.9-4.6-9.9-4.6s-7.5 1.8-9.9 4.6c-1.2-.4-2.4-.6-3.7-.6-6.3 0-11.3 5.1-11.3 11.3 0 5.2 3.5 9.6 8.3 10.9v15.9c0 .8.4 1.5 1.1 2 .4.2 6.9 3.9 15.9 3.9 4.7 0 10-1 15.6-3.9.7-.4 1.2-1.2 1.2-2v-16c4.6-1.5 7.8-5.8 7.8-10.8-.1-6.2-5.2-11.3-11.4-11.3zm3.4 17.3c-.3-.9-1.1-1.6-2.1-1.6-1.3 0-2.3 1-2.3 2.3v18.8c-11.4 5.3-21.5 1.6-24.8 0v-14.2c1.7-.2 3.2-.8 4.7-1.7 1.1-.7 1.4-2.1.7-3.1-.7-1.1-2.1-1.4-3.1-.7-1.1.7-2.4 1.1-3.7 1.1-3.8 0-6.8-3.1-6.8-6.8s3.1-6.8 6.8-6.8c.5 0 .9.1 1.4.2-.5 1.4-.8 2.8-.8 4.3 0 1.2 1 2.3 2.3 2.3s2.3-1 2.3-2.3c0-4.7 3.8-8.4 8.4-8.4s8.4 3.8 8.4 8.4c0 2.5-1.1 4.9-3.1 6.5-1 .8-1.1 2.2-.3 3.2.4.5 1.1.8 1.8.8.5 0 1-.2 1.4-.5 3-2.5 4.8-6.1 4.8-10 0-1.5-.3-3-.8-4.3.5-.1.9-.2 1.4-.2 3.8 0 6.8 3.1 6.8 6.8 0 2.5-1.4 4.7-3.4 5.9z"/><path d="m75.7 0h-65.7c-1.2 0-2.2 1-2.2 2.3v79.1c0 5.3 4.3 9.6 9.6 9.6h59.4c1.2 0 2.3-1 2.3-2.3 0-1.2-1-2.3-2.3-2.3h-59.5c-2.8 0-5-2.3-5-5 0-2.8 2.3-5 5-5h64.4c1.2 0 2.3-1 2.3-2.3 0 0 .1-65 .1-65.5 0-3.4-1-8.6-8.4-8.6zm3.8 71.9h-62.2c-1.8 0-3.6.5-5 1.4v-68.8h63.4c1.5 0 2.6.4 3.2 1.1s.7 1.7.7 2.5c0 .4-.1 63.8-.1 63.8z"/><path d="m82.3 81.3c0-1.2-1-2.3-2.3-2.3h-62.2c-1.3 0-2.3 1-2.3 2.3 0 1.2 1 2.3 2.3 2.3h62.2c1.3 0 2.3-1 2.3-2.3z"/></g></svg>